<?xml version="1.0" encoding="UTF-8" standalone="no"?>
<!-- Created with Inkscape (http://www.inkscape.org/) -->

<svg
   width="512"
   height="512"
   viewBox="0 0 135.46667 135.46667"
   version="1.1"
   id="svg1"
   xml:space="preserve"
   xmlns="http://www.w3.org/2000/svg"
   xmlns:svg="http://www.w3.org/2000/svg"><defs
     id="defs1" /><g
     id="layer1"
     transform="matrix(0.53376289,0,0,0.53376289,31.837692,30.520463)"
     style="display:inline"><g
       id="layer3"
       style="display:inline"
       transform="matrix(5.1949309,0,0,5.1949309,-180.77202,-118.09955)"><path
         stroke="none"
         d="m 47.743116,13.730562 c -6.852591,3.709877 -11.249948,5.451698 -18.719272,6.406697 0,7.767119 0.440404,13.349954 2.113439,18.470307 a 29.153595,34.922503 0 0 0 5.969275,11.252762 c 4.144982,5.27151 8.705297,8.048412 10.636558,8.717112 1.93126,-0.6687 6.491576,-3.445602 10.636557,-8.717112 a 29.153595,34.922503 0 0 0 5.969275,-11.252762 c 1.673035,-5.120353 2.11344,-10.703188 2.11344,-18.470307 -7.469324,-0.954999 -11.866682,-2.69682 -18.719272,-6.406697 z"
         id="path1-9"
         style="display:inline;fill:currentColor;stroke:currentColor;stroke-width:0" /><path
         stroke="none"
         d="m 41.079242,19.291949 c 2.469365,-0.69267 5.093493,-1.314899 6.663874,-1.314899 1.570379,0 4.194509,0.622229 6.663874,1.314899 2.526264,0.704411 5.073011,1.537963 6.570564,2.042791 a 3.5049068,3.6159746 0 0 1 2.376053,2.963221 c 1.356443,10.512156 -1.791144,18.302936 -5.610126,23.456873 a 26.798882,27.648118 0 0 1 -5.728474,5.759731 16.293265,16.809586 0 0 1 -2.38516,1.467524 c -0.637254,0.309941 -1.322304,0.563528 -1.886731,0.563528 -0.564427,0 -1.247201,-0.253587 -1.886732,-0.563528 A 16.290989,16.807237 0 0 1 43.471225,53.514565 26.803433,27.652814 0 0 1 37.742751,47.754834 C 33.923769,42.600897 30.77618,34.810117 32.132625,24.297961 a 3.5049068,3.6159746 0 0 1 2.376053,-2.963221 142.14445,146.6489 0 0 1 6.570564,-2.042791 z"
         id="path1-3"
         style="display:inline;fill:#38a169;fill-opacity:1;stroke:#38a169;stroke-width:0;stroke-opacity:1" /></g><g
       id="path1"
       style="display:inline;fill:#000000;stroke:#ffffff;stroke-width:18.1371;stroke-linecap:round;stroke-linejoin:round;stroke-miterlimit:4.7;paint-order:stroke fill markers"
       transform="matrix(-0.17265666,-0.22271464,0.29905013,-0.12858435,33.580996,169.34991)"><path
         id="path33"
         style="color:#000000;display:none;fill:#ffffff;stroke:none;stroke-width:18.1371;stroke-linecap:butt;stroke-linejoin:miter;stroke-miterlimit:4.7;-inkscape-stroke:none;paint-order:stroke fill markers"
         d="m 574.7221,430.31031 -1.27234,8.3e-4 c 12.50119,-31.08055 9.93049,-66.63916 -4.43619,-99.9585 -16.51062,-38.29159 -48.44435,-74.12938 -91.8606,-99.19575 l -41.26034,-23.82167 0.003,-9.91154 c -1.83753,-32.16072 -1.66315,-32.28358 -16.63074,-40.8536 -1.11835,-0.86933 -2.30609,-1.67733 -3.56455,-2.40511 l -148.77671,-86.049241 -0.006,-0.0034 c -12.4321,-7.17211 -25.55201,-9.50882 -39.6252,-3.598265 L 88.181104,145.97581 c -17.910334,13.94553 -18.23087,13.58397 -22.279899,39.86241 l -1.734073,143.07383 c -0.177415,14.62227 9.691773,25.27404 22.524599,32.70426 l 0.0059,0.003 146.850509,84.80182 c 29.30216,17.05073 29.47064,17.17703 49.30765,5.23815 l 132.98617,-76.79096 c 2.88226,-1.6646 5.49304,-3.70912 7.83903,-6.01105 l 2.84391,-3.14703 c 5.88222,-7.12805 9.36352,-16.18409 9.36352,-25.56342 l 1.6e-4,-44.98915 3.24086,1.87112 c 21.67998,12.51693 37.33897,30.36508 45.14833,48.47571 7.80937,18.11062 7.88142,35.97631 -0.47548,50.45089 -0.78916,1.36687 -1.81437,2.54901 -2.73304,3.81703 l -1.96209,2.5501 c -13.99885,14.77063 -39.71945,23.12897 -66.61648,18.15351 -12.06681,-2.28235 -23.55263,-0.31599 -32.25683,5.66846 -8.71465,5.99163 -14.16247,16.35291 -13.72745,27.74462 0.87359,22.87648 21.18043,41.87914 45.36139,46.36897 64.31244,11.92771 126.60373,-7.16042 155.00282,-56.34906 z"
         transform="translate(5.7511813e-6)" /><path
         style="color:#000000;fill:#000000;stroke:none;stroke-width:18.1371;stroke-linecap:butt;stroke-linejoin:miter;stroke-miterlimit:4.7;-inkscape-stroke:none;paint-order:stroke fill markers"
         d="m 252.94007,439.87348 c 0.88492,-1.65756 1.37709,-3.75984 1.40751,-6.26643 l 1.73907,-143.07647 c -0.0498,-17.04861 -1.5364,-18.96647 -16.91126,-27.84567 L 92.316851,177.87997 c -2.688603,-1.55404 -5.222705,-2.39021 -7.486202,-2.56449 l -0.0026,0.004 c -5.784921,-0.44691 -9.770029,3.42031 -9.857483,10.62771 l -1.736437,143.07243 c -0.121662,10.02721 7.352097,22.32508 16.917192,27.8491 l 146.852559,84.80187 c 7.17382,4.14233 13.28144,3.17592 15.93618,-1.79677 z m -12.36001,-20.98239 c -3.50842,6.18143 -11.57213,7.28328 -20.89499,1.90086 -12.4305,-7.17655 -22.38184,-23.16281 -22.21476,-35.69152 0.0816,-8.10149 4.42786,-13.13033 11.4113,-13.19756 15.11731,-0.14559 33.8138,21.66868 33.56471,39.16448 -0.034,3.13644 -0.69679,5.76324 -1.86626,7.82374 z m 1.3539,-111.33313 c -3.50842,6.18144 -11.58065,7.28373 -20.90351,1.90132 -12.43051,-7.17657 -22.38184,-23.16283 -22.21477,-35.69152 0.0816,-8.10149 4.43641,-13.13078 11.41984,-13.198 15.11732,-0.1456 33.81117,21.67251 33.56209,39.16832 -0.034,3.13646 -0.69417,5.75939 -1.86365,7.81988 z m -56.666,22.99715 c -3.51724,6.15812 -11.57208,7.25106 -20.87931,1.87768 -12.40964,-7.16452 -22.34857,-23.11106 -22.21125,-35.63575 0.0816,-8.1015 4.42786,-13.13034 11.41129,-13.19757 15.11733,-0.1456 33.81378,21.66869 33.56471,39.16448 -0.042,3.1269 -0.71303,5.73846 -1.88544,7.79116 z m -56.63304,23.70419 c -3.50842,6.18145 -11.57211,7.28331 -20.89499,1.90089 -12.430506,-7.17657 -22.375912,-23.1594 -22.208838,-35.68811 0.08125,-8.102 4.427572,-13.13031 11.41129,-13.19755 15.117688,-0.1456 33.814498,21.66867 33.564718,39.16446 -0.034,3.13646 -0.70269,5.75986 -1.87218,7.82031 z m 1.35391,-111.33312 c -3.50844,6.18145 -11.57472,7.28717 -20.89759,1.90476 -12.430515,-7.17658 -22.381843,-23.16283 -22.21477,-35.69153 0.08156,-8.10149 4.430464,-13.13419 11.413907,-13.20144 15.117323,-0.1456 33.811183,21.67255 33.562113,39.16835 -0.034,3.13646 -0.69419,5.7594 -1.86366,7.81986 z"
         id="path30"
         transform="translate(5.7511813e-6)" /><path
         style="color:#000000;fill:#000000;stroke:none;stroke-width:18.1371;stroke-linecap:butt;stroke-linejoin:miter;stroke-miterlimit:4.7;-inkscape-stroke:none;paint-order:stroke fill markers"
         d="m 418.85508,173.37152 c 3.10528,-4.7394 1.09058,-10.42038 -5.90029,-14.46327 L 264.1729,72.858049 c -4.66071,-2.697625 -10.55869,-4.101322 -16.37776,-4.194195 -5.82,-0.09289 -11.56507,1.123724 -15.92191,3.675533 L 92.762627,153.79905 c -8.715555,5.1036 -8.236774,13.40194 1.084435,18.7934 l 148.779728,86.05436 c 16.68531,9.48718 16.16342,9.33438 32.29603,0.51072 L 414.0392,177.70119 c 2.1789,-1.27566 3.78077,-2.75036 4.81585,-4.33014 z m -85.76733,15.67424 c -3.39485,5.3809 -8.84625,10.1012 -16.04299,13.89143 -30.28786,15.91219 -83.76997,12.10118 -119.55789,-8.51942 -23.89642,-13.79671 -34.71756,-32.33795 -28.15141,-48.23548 6.56615,-15.89752 29.45251,-26.56778 59.53945,-27.75972 30.08693,-1.19193 62.4852,7.28815 84.28565,22.0619 21.80047,14.77375 29.46026,33.44022 19.92719,48.56129 z m -8.74064,-4.07068 c 9.5162,-17.34493 -5.87465,-38.71245 -36.97158,-51.3286 -31.09692,-12.61614 -69.49406,-13.07064 -92.23678,-1.09176 -26.65488,14.08144 -22.72014,40.23566 8.79557,58.46412 41.60518,24.01927 105.67689,20.80339 120.41279,-6.04376 z m -31.64532,-5.07353 c -6.56072,11.09772 -33.30341,12.2919 -50.67573,2.26289 -6.67634,-3.86425 -10.71329,-8.78593 -11.15456,-13.59919 l -24.2113,-7.23979 c -5.5723,-1.66711 -7.50249,-5.64959 -3.70785,-7.65022 l 30.08612,-15.84842 c 3.79805,-2.00032 10.92667,-0.7535 13.68998,2.39442 l 12.00389,13.66905 c 22.59913,1.1847 40.52612,14.91185 33.96945,26.01126 z m -9.08997,-3.67395 c 3.14076,-8.10694 -11.00047,-17.12296 -26.40898,-16.83755 -2.21806,0.0406 -4.52624,-0.78789 -5.60276,-2.01102 l -12.55741,-14.30669 -26.88293,14.16674 25.32905,7.57245 c 2.17135,0.64855 3.57029,1.96073 3.39332,3.18288 l -0.0281,0.0108 c -0.87704,6.10226 7.26534,12.55716 18.58609,14.73417 11.32075,2.17702 21.91014,-0.6757 24.17172,-6.51171 z"
         id="path32"
         transform="translate(5.7511813e-6)" /><path
         style="color:#000000;fill:#000000;stroke:none;stroke-width:18.1371;stroke-linecap:butt;stroke-linejoin:miter;stroke-miterlimit:4.7;-inkscape-stroke:none;paint-order:stroke fill markers"
         d="M 559.01234,439.37667 C 594.98812,377.06478 556.29013,287.31958 472.62083,239.0131 l -45.79908,-26.44212 0.002,-15.14777 c 0,-7.18792 -3.54187,-11.25038 -8.74953,-11.11101 -2.03595,0.0547 -4.32866,0.7476 -6.76349,2.15456 l -132.98375,76.79019 c -14.57648,9.11768 -14.44372,7.13337 -15.51467,26.87221 l -4e-4,142.72183 c 0,10.00081 6.85169,13.95957 15.51302,8.95644 l 132.98375,-76.79018 c 8.66133,-5.00221 15.51237,-16.86559 15.51237,-26.86822 l 0.002,-60.69482 16.8375,9.72113 c 46.51803,26.8572 67.99896,76.66985 47.99733,111.31368 -14.43557,25.00314 -46.4547,35.26024 -80.81351,28.90449 -20.23305,-3.84358 -35.9314,7.05343 -35.27848,24.15141 0.65293,17.09796 17.67784,34.03223 37.95614,37.79743 61.60212,11.42504 119.47099,-6.89734 145.49122,-51.96568 z m -149.12349,-88.9718 c -3.68455,6.21633 -8.76833,11.68142 -14.38687,14.9252 -11.23711,6.48755 -20.35212,1.63553 -20.36563,-10.84226 -0.0337,-17.45487 17.01492,-38.21683 30.60736,-37.27395 6.27913,0.43554 10.13193,5.67734 10.11659,13.75858 -0.006,6.2466 -2.28691,13.21609 -5.97145,19.43243 z M 308.52444,297.86701 c -3.68454,6.21634 -8.76833,11.68143 -14.38687,14.92521 -11.23711,6.48754 -20.35212,1.63554 -20.36563,-10.84226 -0.033,-17.45334 17.01351,-38.20901 30.60507,-37.26995 l 0.003,-0.004 c 6.27769,0.43642 10.13697,5.68174 10.12195,13.76167 -0.006,6.2466 -2.29227,13.21299 -5.97681,19.42933 z"
         id="path34"
         transform="translate(5.7511813e-6)" /></g></g></svg>
